<svg width="701" height="144" viewBox="0 0 701 144" fill="none" xmlns="http://www.w3.org/2000/svg">
<g clip-path="url(#clip0_2_6)">
<g clip-path="url(#clip1_2_6)">
<g clip-path="url(#clip2_2_6)">
<path d="M581.504 9.99625H576.152C576.145 9.99625 576.138 10.0026 576.138 10.0104V133.889C576.138 133.896 576.145 133.903 576.152 133.903H581.504C581.512 133.903 581.518 133.896 581.518 133.889V10.0104C581.518 10.0026 581.512 9.99625 581.504 9.99625Z" fill="black"/>
<g clip-path="url(#clip3_2_6)">
<g clip-path="url(#clip4_2_6)">
<g clip-path="url(#clip5_2_6)">
<g clip-path="url(#clip6_2_6)">
<path d="M29.0557 21.5738H41.2622V66.018H29.0557V48.6159H14.1575V66.018H1.95099V21.5738H14.1575V37.9743H29.0557V21.5738ZM63.7348 66.644C60.8553 66.644 58.2888 66.1933 56.0353 65.2919C53.7817 64.3988 51.8913 63.1803 50.3639 61.6362C48.8449 60.0921 47.6889 58.3185 46.896 56.3154C46.1031 54.3123 45.7067 52.2048 45.7067 49.993C45.7067 46.8214 46.3952 43.9086 47.7724 41.2544C49.1495 38.6086 51.1735 36.4803 53.8443 34.8695C56.5152 33.267 59.812 32.4657 63.7348 32.4657C67.6575 32.4657 70.9543 33.2586 73.6252 34.8444C76.296 36.4302 78.32 38.5168 79.6971 41.1042C81.0743 43.6916 81.7628 46.5084 81.7628 49.5549C81.7628 50.1808 81.7295 50.8152 81.6627 51.4578C81.6043 52.1088 81.5333 52.6847 81.4499 53.1855H58.3514C58.4348 54.354 58.7562 55.3013 59.3154 56.0274C59.8829 56.7619 60.5924 57.2961 61.4437 57.6299C62.3034 57.9638 63.1922 58.1307 64.1103 58.1307C65.404 58.1307 66.6226 57.8386 67.766 57.2544C68.9178 56.6701 69.6815 55.8563 70.0571 54.813L80.1353 57.6925C79.2589 59.4453 78.0362 60.9893 76.4671 62.3248C74.9063 63.6602 73.0618 64.7118 70.9335 65.4797C68.8052 66.2559 66.4056 66.644 63.7348 66.644ZM58.101 46.0494H68.9929C68.8677 44.9644 68.5631 44.0463 68.079 43.2951C67.6033 42.5439 66.9773 41.9597 66.2011 41.5424C65.4332 41.1251 64.5485 40.9164 63.547 40.9164C62.5454 40.9164 61.6565 41.1251 60.8803 41.5424C60.1124 41.9597 59.4865 42.5439 59.0024 43.2951C58.5266 44.0463 58.2262 44.9644 58.101 46.0494ZM85.3935 57.1292V20.3218H97.287V52.9351C97.287 54.1453 97.5458 55.076 98.0632 55.727C98.5891 56.3696 99.3527 56.691 100.354 56.691C100.855 56.691 101.398 56.6075 101.982 56.4406C102.566 56.2737 103.109 56.0441 103.609 55.752L105.112 64.5157C103.693 65.1834 102.095 65.705 100.317 66.0806C98.5473 66.4562 96.8655 66.644 95.2714 66.644C92.1081 66.644 89.671 65.8177 87.96 64.1651C86.249 62.5209 85.3935 60.1756 85.3935 57.1292ZM130.013 66.644C127.634 66.644 125.569 66.1724 123.816 65.2293C122.063 64.2945 120.707 62.9299 119.747 61.1354V79.3513H107.853V33.0917H118.182V38.0369C119.351 36.2424 120.803 34.8653 122.539 33.9055C124.267 32.9456 126.361 32.4657 128.824 32.4657C131.035 32.4657 133.059 32.883 134.896 33.7177C136.732 34.5523 138.338 35.7417 139.716 37.2857C141.093 38.8298 142.157 40.6243 142.908 42.6691C143.659 44.714 144.035 46.9675 144.035 49.4297C144.035 52.7265 143.43 55.6685 142.22 58.2559C141.009 60.8433 139.353 62.8881 137.249 64.3905C135.138 65.8928 132.726 66.644 130.013 66.644ZM125.882 56.6284C126.758 56.6284 127.563 56.4406 128.298 56.065C129.024 55.6894 129.658 55.1678 130.201 54.5001C130.743 53.8324 131.161 53.0603 131.453 52.184C131.745 51.3076 131.891 50.3686 131.891 49.3671C131.891 48.3238 131.737 47.3848 131.428 46.5502C131.111 45.7155 130.66 44.9936 130.076 44.3843C129.491 43.7834 128.803 43.316 128.01 42.9821C127.217 42.6483 126.341 42.4813 125.381 42.4813C124.838 42.4813 124.308 42.5523 123.791 42.6942C123.265 42.8444 122.773 43.0531 122.314 43.3201C121.854 43.5956 121.408 43.9419 120.974 44.3593C120.532 44.7766 120.123 45.2774 119.747 45.8616V51.558C120.123 52.5178 120.636 53.3858 121.287 54.162C121.93 54.9299 122.647 55.5308 123.44 55.9648C124.233 56.4072 125.047 56.6284 125.882 56.6284ZM194.426 66.018H182.219V42.6065L174.77 59.0697H168.26L160.811 42.6065V66.018H148.604V21.5738H161.938L171.515 42.4813L181.155 21.5738H194.426V66.018ZM216.898 66.644C214.019 66.644 211.452 66.1933 209.199 65.2919C206.945 64.3988 205.055 63.1803 203.528 61.6362C202.009 60.0921 200.853 58.3185 200.06 56.3154C199.267 54.3123 198.87 52.2048 198.87 49.993C198.87 46.8214 199.559 43.9086 200.936 41.2544C202.313 38.6086 204.337 36.4803 207.008 34.8695C209.679 33.267 212.976 32.4657 216.898 32.4657C220.821 32.4657 224.118 33.2586 226.789 34.8444C229.46 36.4302 231.484 38.5168 232.861 41.1042C234.238 43.6916 234.926 46.5084 234.926 49.5549C234.926 50.1808 234.893 50.8152 234.826 51.4578C234.768 52.1088 234.697 52.6847 234.613 53.1855H211.515C211.598 54.354 211.92 55.3013 212.479 56.0274C213.047 56.7619 213.756 57.2961 214.607 57.6299C215.467 57.9638 216.356 58.1307 217.274 58.1307C218.568 58.1307 219.786 57.8386 220.93 57.2544C222.081 56.6701 222.845 55.8563 223.221 54.813L233.299 57.6925C232.423 59.4453 231.2 60.9893 229.631 62.3248C228.07 63.6602 226.225 64.7118 224.097 65.4797C221.969 66.2559 219.569 66.644 216.898 66.644ZM211.265 46.0494H222.157C222.031 44.9644 221.727 44.0463 221.243 43.2951C220.767 42.5439 220.141 41.9597 219.365 41.5424C218.597 41.1251 217.712 40.9164 216.711 40.9164C215.709 40.9164 214.82 41.1251 214.044 41.5424C213.276 41.9597 212.65 42.5439 212.166 43.2951C211.69 44.0463 211.39 44.9644 211.265 46.0494ZM256.272 66.018H239.183V21.5738H256.272C261.197 21.5738 265.315 22.5628 268.629 24.5409C271.951 26.5273 274.455 29.1981 276.141 32.5534C277.835 35.9169 278.682 39.6436 278.682 43.7333C278.682 48.2403 277.752 52.1631 275.89 55.5016C274.037 58.8402 271.429 61.4275 268.066 63.2637C264.71 65.0999 260.779 66.018 256.272 66.018ZM266.288 43.7333C266.288 41.438 265.891 39.4224 265.098 37.6864C264.306 35.9587 263.158 34.6149 261.656 33.6551C260.153 32.6953 258.359 32.2153 256.272 32.2153H251.39V55.3764H256.272C258.401 55.3764 260.203 54.8756 261.681 53.8741C263.166 52.8725 264.306 51.4829 265.098 49.7051C265.891 47.9357 266.288 45.9451 266.288 43.7333ZM299.389 66.644C296.51 66.644 293.943 66.1933 291.69 65.2919C289.436 64.3988 287.55 63.1803 286.031 61.6362C284.504 60.0921 283.344 58.3185 282.551 56.3154C281.758 54.3123 281.361 52.2048 281.361 49.993C281.361 46.8214 282.05 43.9086 283.427 41.2544C284.804 38.6086 286.828 36.4803 289.499 34.8695C292.17 33.267 295.467 32.4657 299.389 32.4657C303.312 32.4657 306.609 33.2586 309.28 34.8444C311.951 36.4302 313.975 38.5168 315.352 41.1042C316.729 43.6916 317.418 46.5084 317.418 49.5549C317.418 50.1808 317.388 50.8152 317.33 51.4578C317.263 52.1088 317.188 52.6847 317.105 53.1855H294.006C294.089 54.354 294.415 55.3013 294.983 56.0274C295.542 56.7619 296.251 57.2961 297.111 57.6299C297.962 57.9638 298.847 58.1307 299.765 58.1307C301.059 58.1307 302.281 57.8386 303.433 57.2544C304.577 56.6701 305.336 55.8563 305.712 54.813L315.79 57.6925C314.914 59.4453 313.695 60.9893 312.134 62.3248C310.565 63.6602 308.716 64.7118 306.588 65.4797C304.46 66.2559 302.06 66.644 299.389 66.644ZM293.756 46.0494H304.648C304.522 44.9644 304.222 44.0463 303.746 43.2951C303.262 42.5439 302.636 41.9597 301.868 41.5424C301.092 41.1251 300.203 40.9164 299.202 40.9164C298.2 40.9164 297.315 41.1251 296.547 41.5424C295.771 41.9597 295.145 42.5439 294.67 43.2951C294.185 44.0463 293.881 44.9644 293.756 46.0494ZM342.269 66.644C339.807 66.644 337.678 66.1515 335.884 65.1667C334.089 64.1902 332.67 62.7629 331.627 60.885V66.018H321.299V20.3218H333.192V37.9743C334.152 36.1798 335.508 34.811 337.261 33.8679C339.014 32.9331 341.079 32.4657 343.458 32.4657C345.461 32.4657 347.318 32.8914 349.029 33.7427C350.74 34.6024 352.234 35.8043 353.511 37.3483C354.78 38.8924 355.769 40.7161 356.478 42.8194C357.188 44.931 357.543 47.2179 357.543 49.6801C357.543 52.1005 357.159 54.3415 356.391 56.403C355.615 58.4729 354.55 60.2799 353.198 61.824C351.838 63.368 350.231 64.5574 348.378 65.392C346.517 66.2267 344.481 66.644 342.269 66.644ZM338.826 56.6284C339.786 56.6284 340.662 56.4614 341.455 56.1276C342.248 55.7937 342.936 55.3222 343.521 54.7129C344.105 54.112 344.556 53.3942 344.873 52.5595C345.182 51.7249 345.336 50.7859 345.336 49.7426C345.336 48.4072 345.077 47.1845 344.56 46.0744C344.034 44.9727 343.325 44.0963 342.432 43.4453C341.53 42.8027 340.495 42.4813 339.327 42.4813C338.492 42.4813 337.678 42.69 336.885 43.1073C336.092 43.5246 335.375 44.0963 334.732 44.8225C334.081 45.557 333.568 46.4041 333.192 47.3639V53.2481C333.568 53.7906 333.977 54.2789 334.419 54.7129C334.853 55.1552 335.3 55.51 335.759 55.777C336.218 56.0525 336.71 56.2611 337.236 56.403C337.753 56.5533 338.283 56.6284 338.826 56.6284ZM361.486 54.7504V33.0917H373.38V52.0588C373.38 53.4776 373.701 54.596 374.344 55.414C374.995 56.2236 375.884 56.6284 377.01 56.6284C377.636 56.6284 378.262 56.5449 378.888 56.378C379.514 56.2111 380.149 55.8772 380.791 55.3764C381.442 54.8756 382.081 54.1662 382.707 53.2481V33.0917H394.6V52.8725C394.6 53.9993 394.767 54.7797 395.101 55.2137C395.435 55.656 396.019 55.9189 396.854 56.0024V66.018C395.811 66.2267 394.872 66.3852 394.037 66.4937C393.202 66.5939 392.472 66.644 391.846 66.644C389.843 66.644 388.257 66.2684 387.089 65.5172C385.92 64.7661 385.169 63.6184 384.835 62.0744L384.585 60.885C383.041 62.9299 381.192 64.3988 379.039 65.2919C376.894 66.1933 374.465 66.644 371.752 66.644C368.455 66.644 365.918 65.6216 364.14 63.5767C362.371 61.5318 361.486 58.5898 361.486 54.7504ZM414.381 66.018C412.253 66.018 410.3 65.6007 408.522 64.7661C406.753 63.9314 405.242 62.7629 403.99 61.2606C402.738 59.7583 401.766 58.0055 401.073 56.0024C400.388 53.9993 400.046 51.8292 400.046 49.4923C400.046 47.0301 400.422 44.7641 401.173 42.6942C401.924 40.6326 402.976 38.8298 404.328 37.2857C405.688 35.7417 407.308 34.5523 409.185 33.7177C411.063 32.883 413.129 32.4657 415.383 32.4657C417.72 32.4657 419.794 32.9331 421.605 33.8679C423.424 34.811 424.856 36.1798 425.899 37.9743V33.0917H436.228V63.0133C436.228 66.4353 435.393 69.4191 433.724 71.9648C432.054 74.5104 429.717 76.4801 426.713 77.874C423.708 79.2762 420.203 79.9773 416.196 79.9773C412.733 79.9773 409.695 79.4347 407.082 78.3497C404.478 77.2647 402.175 75.6998 400.171 73.6549L406.431 67.1448C407.641 68.2715 409.09 69.223 410.775 69.9992C412.47 70.7671 414.277 71.151 416.196 71.151C417.657 71.151 419.001 70.8797 420.228 70.3372C421.463 69.7947 422.456 68.9309 423.207 67.7457C423.959 66.5522 424.334 64.9747 424.334 63.0133V60.885C423.416 62.596 422.047 63.8772 420.228 64.7285C418.417 65.5882 416.468 66.018 414.381 66.018ZM418.638 56.6284C419.222 56.6284 419.773 56.5533 420.29 56.403C420.816 56.2611 421.309 56.0525 421.768 55.777C422.227 55.51 422.673 55.1552 423.107 54.7129C423.55 54.2789 423.959 53.7906 424.334 53.2481V47.3639C423.959 46.3624 423.437 45.4944 422.769 44.7599C422.101 44.0338 421.371 43.4745 420.578 43.0823C419.785 42.6816 418.972 42.4813 418.137 42.4813C417.302 42.4813 416.518 42.6691 415.783 43.0447C415.057 43.4203 414.423 43.9545 413.88 44.6472C413.338 45.3316 412.92 46.112 412.628 46.9884C412.336 47.8647 412.19 48.8037 412.19 49.8052C412.19 50.8068 412.345 51.7249 412.653 52.5595C412.971 53.3942 413.421 54.112 414.006 54.7129C414.59 55.3222 415.278 55.7937 416.071 56.1276C416.864 56.4614 417.72 56.6284 418.638 56.6284ZM474.775 21.5738V32.2153H462.005V66.018H449.799V32.2153H436.966V21.5738H474.775ZM511.52 44.3593V66.018H499.626V47.4891C499.626 45.8616 499.263 44.6806 498.537 43.9461C497.803 43.22 496.893 42.8569 495.808 42.8569C495.307 42.8569 494.694 43.0447 493.968 43.4203C493.233 43.7959 492.532 44.3384 491.864 45.0478C491.197 45.7573 490.675 46.5919 490.299 47.5517V66.018H478.406V20.3218H490.299V37.9743C491.468 36.1798 493.004 34.811 494.907 33.8679C496.801 32.9331 498.896 32.4657 501.191 32.4657C503.528 32.4657 505.385 32.8497 506.763 33.6175C508.14 34.3937 509.162 35.3869 509.83 36.5972C510.498 37.8074 510.948 39.1011 511.182 40.4782C511.407 41.8554 511.52 43.149 511.52 44.3593ZM529.172 66.018H517.279V33.0917H529.172V66.018ZM529.172 30.3374H517.279V20.3218H529.172V30.3374ZM548.39 66.644C545.51 66.644 542.681 66.1724 539.902 65.2293C537.131 64.2945 534.785 62.9299 532.866 61.1354L536.935 53.8115C538.979 55.1469 540.949 56.1902 542.844 56.9414C544.747 57.6925 546.47 58.0681 548.014 58.0681C548.891 58.0681 549.537 57.9513 549.955 57.7176C550.372 57.4922 550.581 57.1083 550.581 56.5658C550.581 56.1902 550.435 55.8772 550.143 55.6268C549.851 55.3764 549.379 55.126 548.728 54.8756C548.085 54.6253 547.263 54.354 546.262 54.0619C543.674 53.1438 541.513 52.2883 539.776 51.4954C538.049 50.7025 536.755 49.7301 535.895 48.5783C535.044 47.4349 534.618 45.9033 534.618 43.9837C534.618 41.7302 535.182 39.7354 536.309 37.9994C537.435 36.2717 539.05 34.907 541.154 33.9055C543.265 32.9039 545.803 32.4031 548.765 32.4031C550.977 32.4031 553.197 32.7453 555.426 33.4297C557.663 34.1225 559.824 35.3661 561.911 37.1605L557.404 44.4219C555.317 43.1282 553.552 42.2101 552.108 41.6676C550.673 41.1251 549.391 40.8538 548.265 40.8538C547.722 40.8538 547.251 40.9164 546.85 41.0416C546.458 41.1668 546.157 41.3546 545.949 41.605C545.74 41.8554 545.636 42.1892 545.636 42.6065C545.636 43.0238 545.782 43.366 546.074 43.6331C546.366 43.9086 546.825 44.1589 547.451 44.3843C548.077 44.618 548.87 44.8809 549.83 45.173C552.667 46.0077 554.984 46.8506 556.778 47.702C558.572 48.5616 559.895 49.5966 560.747 50.8068C561.606 52.017 562.036 53.6028 562.036 55.5642C562.036 59.0279 560.813 61.7405 558.368 63.7019C555.931 65.6633 552.605 66.644 548.39 66.644Z" fill="black"/>
</g>
</g>
<g clip-path="url(#clip7_2_6)">
<g clip-path="url(#clip8_2_6)">
<path d="M246.456 94.4727L256.021 123.33H252.558L249.672 114.219H239.325L236.48 123.33H233.223L242.705 94.4727H246.456ZM240.108 111.54H248.971L244.56 97.6058L240.108 111.54ZM261.874 118.96V123.33H258.783V118.96H261.874ZM270.944 94.4727V123.33H267.852V94.4727H270.944ZM303.256 95.5033L302.596 98.2654L300.205 97.5646C298.501 97.1523 297.031 96.9462 295.794 96.9462C292.551 96.9462 290.929 98.3891 290.929 101.275C290.929 102.539 291.424 103.575 292.414 104.383C293.403 105.197 294.607 105.842 296.025 106.321C297.437 106.804 298.853 107.327 300.271 107.887C301.684 108.453 302.885 109.319 303.874 110.484C304.863 111.655 305.358 113.134 305.358 114.92C305.358 117.641 304.52 119.763 302.843 121.285C301.167 122.813 298.79 123.577 295.712 123.577C294.172 123.577 292.628 123.349 291.078 122.893C289.522 122.442 288.25 121.915 287.261 121.31L288.291 118.96C290.792 120.114 293.164 120.692 295.406 120.692C297.644 120.692 299.348 120.238 300.518 119.331C301.684 118.424 302.266 117.105 302.266 115.374C302.266 113.615 301.318 112.241 299.422 111.251C298.57 110.811 297.63 110.399 296.602 110.014C295.569 109.63 294.538 109.209 293.51 108.753C292.477 108.302 291.542 107.788 290.707 107.211C289.866 106.634 289.179 105.851 288.646 104.861C288.107 103.872 287.838 102.718 287.838 101.398C287.838 99.0349 288.547 97.221 289.965 95.9568C291.377 94.6926 293.279 94.0605 295.67 94.0605C298.061 94.0605 300.59 94.5414 303.256 95.5033ZM320.158 102.264C322.796 102.264 324.679 103.199 325.805 105.067C328.142 103.199 330.299 102.264 332.278 102.264C334.256 102.264 335.87 102.819 337.117 103.93C338.371 105.045 338.997 106.661 338.997 108.778V123.33H335.988V110.056C335.988 108.379 335.609 107.107 334.85 106.238C334.097 105.375 333.088 104.944 331.824 104.944C330.093 104.944 328.348 105.631 326.589 107.005C326.726 107.61 326.795 108.201 326.795 108.778V123.33H323.785V110.056C323.785 108.379 323.406 107.107 322.648 106.238C321.895 105.375 320.886 104.944 319.622 104.944C318.797 104.944 318.041 105.054 317.354 105.274C316.667 105.493 316.159 105.713 315.829 105.933C315.499 106.153 315.073 106.483 314.551 106.923V123.33H311.459V102.718H313.438L313.974 104.82C314.661 104.243 315.189 103.822 315.557 103.559C315.931 103.3 316.544 103.02 317.396 102.718C318.248 102.415 319.168 102.264 320.158 102.264ZM355.405 111.004H357.095C357.095 108.503 356.779 106.873 356.147 106.115C355.515 105.362 354.113 104.985 351.942 104.985C349.771 104.985 347.929 105.274 346.418 105.851L345.841 103.46C348.149 102.69 350.54 102.305 353.014 102.305C357.851 102.305 360.269 104.724 360.269 109.561V123.33H358.455L357.383 120.898C356.119 121.942 355.025 122.648 354.102 123.017C353.184 123.39 352.12 123.577 350.911 123.577C348.987 123.577 347.49 123.006 346.418 121.862C345.346 120.725 344.81 119.221 344.81 117.352C344.81 113.12 348.342 111.004 355.405 111.004ZM357.136 117.929V113.601H355.281C352.478 113.601 350.546 113.876 349.485 114.425C348.429 114.975 347.902 115.833 347.902 116.998C347.902 118.169 348.204 119.125 348.809 119.867C349.413 120.609 350.202 120.98 351.175 120.98C352.153 120.98 353.088 120.752 353.978 120.296C354.874 119.845 355.927 119.056 357.136 117.929ZM370.856 107.582V123.33H367.764V102.718H369.743L370.237 105.15C371.556 104.106 372.656 103.369 373.535 102.94C374.415 102.517 375.418 102.305 376.545 102.305C377.094 102.305 377.507 102.333 377.781 102.388L378.358 102.553L377.864 105.397C377.369 105.232 376.696 105.15 375.844 105.15C374.195 105.15 372.532 105.961 370.856 107.582ZM383.553 118.878V105.191H380.75V102.718H383.594V96.8225H386.686V102.718H391.715V105.191H386.645V118.301C386.645 120.142 387.579 121.063 389.448 121.063C389.888 121.063 390.561 120.98 391.468 120.815L391.921 123.041C390.795 123.399 389.635 123.577 388.442 123.577C387.244 123.577 386.131 123.212 385.103 122.481C384.069 121.755 383.553 120.554 383.553 118.878ZM417.645 94.4727L427.21 123.33H423.747L420.861 114.219H410.514L407.669 123.33H404.412L413.894 94.4727H417.645ZM411.297 111.54H420.16L415.749 97.6058L411.297 111.54ZM429.963 121.969L430.705 119.661C432.492 120.485 434.196 120.898 435.817 120.898C437.439 120.898 438.67 120.573 439.511 119.925C440.346 119.282 440.764 118.424 440.764 117.352C440.764 116.281 440.407 115.448 439.692 114.854C438.978 114.266 438.107 113.807 437.079 113.477C436.045 113.147 435.015 112.79 433.987 112.405C432.954 112.021 432.08 111.443 431.365 110.674C430.65 109.904 430.293 108.929 430.293 107.747C430.293 106.016 430.857 104.674 431.983 103.724C433.11 102.778 434.635 102.305 436.559 102.305C438.483 102.305 440.269 102.594 441.918 103.171L442.207 103.295L441.671 105.933C440.022 105.301 438.491 104.985 437.079 104.985C435.661 104.985 434.69 105.205 434.168 105.645C433.646 106.084 433.385 106.826 433.385 107.871C433.385 108.53 433.742 109.094 434.457 109.561C435.171 110.028 436.045 110.432 437.079 110.773C438.107 111.119 439.137 111.518 440.171 111.968C441.198 112.425 442.07 113.106 442.784 114.013C443.499 114.92 443.856 116.033 443.856 117.352C443.856 119.276 443.183 120.793 441.836 121.904C440.489 123.019 438.634 123.577 436.271 123.577C433.907 123.577 431.805 123.041 429.963 121.969ZM447.937 121.969L448.679 119.661C450.466 120.485 452.17 120.898 453.791 120.898C455.413 120.898 456.644 120.573 457.485 119.925C458.32 119.282 458.738 118.424 458.738 117.352C458.738 116.281 458.381 115.448 457.666 114.854C456.952 114.266 456.08 113.807 455.053 113.477C454.019 113.147 452.989 112.79 451.961 112.405C450.927 112.021 450.053 111.443 449.339 110.674C448.624 109.904 448.267 108.929 448.267 107.747C448.267 106.016 448.83 104.674 449.957 103.724C451.084 102.778 452.609 102.305 454.533 102.305C456.457 102.305 458.243 102.594 459.892 103.171L460.181 103.295L459.645 105.933C457.996 105.301 456.465 104.985 455.053 104.985C453.634 104.985 452.664 105.205 452.142 105.645C451.62 106.084 451.359 106.826 451.359 107.871C451.359 108.53 451.716 109.094 452.431 109.561C453.145 110.028 454.019 110.432 455.053 110.773C456.08 111.119 457.111 111.518 458.144 111.968C459.172 112.425 460.044 113.106 460.758 114.013C461.473 114.92 461.83 116.033 461.83 117.352C461.83 119.276 461.157 120.793 459.81 121.904C458.463 123.019 456.608 123.577 454.245 123.577C451.881 123.577 449.779 123.041 447.937 121.969ZM469.951 123.33H466.859V102.718H469.951V123.33ZM466.859 94.4727H469.951V98.1417H466.859V94.4727ZM475.31 121.969L476.052 119.661C477.839 120.485 479.543 120.898 481.164 120.898C482.786 120.898 484.014 120.573 484.85 119.925C485.691 119.282 486.111 118.424 486.111 117.352C486.111 116.281 485.754 115.448 485.039 114.854C484.325 114.266 483.451 113.807 482.417 113.477C481.39 113.147 480.359 112.79 479.326 112.405C478.298 112.021 477.427 111.443 476.712 110.674C475.997 109.904 475.64 108.929 475.64 107.747C475.64 106.016 476.204 104.674 477.33 103.724C478.457 102.778 479.982 102.305 481.906 102.305C483.83 102.305 485.616 102.594 487.265 103.171L487.554 103.295L487.018 105.933C485.369 105.301 483.836 104.985 482.417 104.985C481.005 104.985 480.037 105.205 479.515 105.645C478.993 106.084 478.732 106.826 478.732 107.871C478.732 108.53 479.089 109.094 479.804 109.561C480.518 110.028 481.39 110.432 482.417 110.773C483.451 111.119 484.481 111.518 485.509 111.968C486.543 112.425 487.417 113.106 488.131 114.013C488.846 114.92 489.203 116.033 489.203 117.352C489.203 119.276 488.53 120.793 487.183 121.904C485.836 123.019 483.981 123.577 481.618 123.577C479.254 123.577 477.152 123.041 475.31 121.969ZM495.296 118.878V105.191H492.493V102.718H495.337V96.8225H498.429V102.718H503.458V105.191H498.388V118.301C498.388 120.142 499.322 121.063 501.191 121.063C501.631 121.063 502.304 120.98 503.211 120.815L503.665 123.041C502.538 123.399 501.378 123.577 500.185 123.577C498.987 123.577 497.874 123.212 496.846 122.481C495.813 121.755 495.296 120.554 495.296 118.878ZM517.969 111.004H519.66C519.66 108.503 519.344 106.873 518.712 106.115C518.079 105.362 516.678 104.985 514.507 104.985C512.335 104.985 510.494 105.274 508.983 105.851L508.405 103.46C510.714 102.69 513.105 102.305 515.578 102.305C520.415 102.305 522.834 104.724 522.834 109.561V123.33H521.02L519.948 120.898C518.684 121.942 517.593 122.648 516.675 123.017C515.752 123.39 514.685 123.577 513.476 123.577C511.552 123.577 510.054 123.006 508.983 121.862C507.911 120.725 507.375 119.221 507.375 117.352C507.375 113.12 510.906 111.004 517.969 111.004ZM519.701 117.929V113.601H517.846C515.043 113.601 513.113 113.876 512.058 114.425C510.997 114.975 510.467 115.833 510.467 116.998C510.467 118.169 510.769 119.125 511.374 119.867C511.978 120.609 512.77 120.98 513.748 120.98C514.721 120.98 515.655 120.752 516.551 120.296C517.442 119.845 518.492 119.056 519.701 117.929ZM533.429 106.964V123.33H530.337V102.718H532.316L532.81 104.738C533.442 104.243 533.956 103.858 534.352 103.583C534.753 103.309 535.394 103.025 536.273 102.734C537.153 102.448 538.087 102.305 539.076 102.305C540.973 102.305 542.545 102.888 543.793 104.053C545.046 105.224 545.672 106.881 545.672 109.025V123.33H542.581V109.932C542.581 106.606 541.193 104.944 538.417 104.944C536.438 104.944 534.775 105.617 533.429 106.964ZM553.67 118.878V105.191H550.867V102.718H553.711V96.8225H556.803V102.718H561.832V105.191H556.762V118.301C556.762 120.142 557.696 121.063 559.565 121.063C560.005 121.063 560.678 120.98 561.585 120.815L562.039 123.041C560.912 123.399 559.749 123.577 558.551 123.577C557.358 123.577 556.245 123.212 555.212 122.481C554.184 121.755 553.67 120.554 553.67 118.878Z" fill="black"/>
</g>
</g>
</g>
</g>
<g clip-path="url(#clip9_2_6)">
<g clip-path="url(#clip10_2_6)">
<path d="M628.675 33.2781C631.985 33.2781 634.668 30.5948 634.668 27.2847C634.668 23.9747 631.985 21.2914 628.675 21.2914C625.365 21.2914 622.681 23.9747 622.681 27.2847C622.681 30.5948 625.365 33.2781 628.675 33.2781Z" fill="black"/>
<path d="M666.146 33.2781C669.456 33.2781 672.139 30.5948 672.139 27.2847C672.139 23.9747 669.456 21.2914 666.146 21.2914C662.836 21.2914 660.153 23.9747 660.153 27.2847C660.153 30.5948 662.836 33.2781 666.146 33.2781Z" fill="black"/>
<path d="M595.601 0.600006V56.5737H641.117V61.3398L595.601 61.3427V143.299H622.063L642.204 123.158L630.63 111.586L642.204 100.011L638.821 96.6293L623.866 111.586L630.427 118.148L617.186 131.391H607.511V73.2509H687.31V131.389H677.638L664.395 118.147L670.958 111.584L655.999 96.6279L652.615 100.01L664.191 111.584L652.615 123.157L672.757 143.299H699.219V61.3427L653.704 61.3413V56.5751H699.219V0.600006H595.601ZM687.31 44.664H607.511V11.6592H687.31V44.664Z" fill="black"/>
<path d="M647.408 101.855L637.68 111.583L647.409 121.312L657.137 111.584L647.408 101.855Z" fill="black"/>
</g>
</g>
</g>
</g>
</g>
<defs>
<clipPath id="clip0_2_6">
<rect width="700" height="142.8" fill="white" transform="translate(0.575745 0.54953)"/>
</clipPath>
<clipPath id="clip1_2_6">
<rect width="697.287" height="142.699" fill="white" transform="translate(1.93219 0.600006)"/>
</clipPath>
<clipPath id="clip2_2_6">
<rect width="697.287" height="142.699" fill="white" transform="translate(1.93219 0.600006)"/>
</clipPath>
<clipPath id="clip3_2_6">
<rect width="560.123" height="103.255" fill="white" transform="translate(1.93219 20.3218)"/>
</clipPath>
<clipPath id="clip4_2_6">
<rect width="560.123" height="103.255" fill="white" transform="translate(1.93219 20.3218)"/>
</clipPath>
<clipPath id="clip5_2_6">
<rect width="560.123" height="59.6555" fill="white" transform="translate(1.93219 20.3218)"/>
</clipPath>
<clipPath id="clip6_2_6">
<rect width="560.123" height="59.6555" fill="white" transform="translate(1.93219 20.3218)"/>
</clipPath>
<clipPath id="clip7_2_6">
<rect width="328.848" height="29.5168" fill="white" transform="translate(233.207 94.0605)"/>
</clipPath>
<clipPath id="clip8_2_6">
<rect width="328.848" height="29.5168" fill="white" transform="translate(233.207 94.0605)"/>
</clipPath>
<clipPath id="clip9_2_6">
<rect width="103.618" height="142.699" fill="white" transform="translate(595.601 0.600006)"/>
</clipPath>
<clipPath id="clip10_2_6">
<rect width="103.618" height="142.699" fill="white" transform="translate(595.601 0.600006)"/>
</clipPath>
</defs>
</svg>
