<svg width="1000" height="167" viewBox="0 0 1000 167" fill="none" xmlns="http://www.w3.org/2000/svg">
<path d="M1000 0H-9V167H1000V0Z" fill="#89939E"/>
<g clip-path="url(#clip0_0_1)">
<g clip-path="url(#clip1_0_1)">
<g clip-path="url(#clip2_0_1)">
<path d="M730.504 19.9962H725.152C725.145 19.9962 725.138 20.0026 725.138 20.0104V143.889C725.138 143.896 725.145 143.903 725.152 143.903H730.504C730.512 143.903 730.518 143.896 730.518 143.889V20.0104C730.518 20.0026 730.512 19.9962 730.504 19.9962Z" fill="white"/>
<g clip-path="url(#clip3_0_1)">
<g clip-path="url(#clip4_0_1)">
<g clip-path="url(#clip5_0_1)">
<g clip-path="url(#clip6_0_1)">
<path d="M178.056 31.5737H190.262V76.018H178.056V58.6159H163.158V76.018H150.951V31.5737H163.158V47.9743H178.056V31.5737ZM212.735 76.6439C209.855 76.6439 207.289 76.1932 205.035 75.2918C202.782 74.3988 200.891 73.1802 199.364 71.6361C197.845 70.0921 196.689 68.3185 195.896 66.3154C195.103 64.3122 194.707 62.2048 194.707 59.993C194.707 56.8214 195.395 53.9085 196.772 51.2544C198.15 48.6086 200.174 46.4803 202.844 44.8694C205.515 43.2669 208.812 42.4657 212.735 42.4657C216.658 42.4657 219.954 43.2586 222.625 44.8444C225.296 46.4302 227.32 48.5168 228.697 51.1042C230.074 53.6915 230.763 56.5084 230.763 59.5548C230.763 60.1808 230.729 60.8151 230.663 61.4578C230.604 62.1088 230.533 62.6847 230.45 63.1855H207.351C207.435 64.354 207.756 65.3013 208.315 66.0274C208.883 66.7619 209.592 67.296 210.444 67.6299C211.303 67.9638 212.192 68.1307 213.11 68.1307C214.404 68.1307 215.623 67.8386 216.766 67.2543C217.918 66.6701 218.682 65.8563 219.057 64.813L229.135 67.6925C228.259 69.4452 227.036 70.9893 225.467 72.3247C223.906 73.6601 222.062 74.7118 219.933 75.4796C217.805 76.2558 215.406 76.6439 212.735 76.6439ZM207.101 56.0494H217.993C217.868 54.9643 217.563 54.0462 217.079 53.2951C216.603 52.5439 215.977 51.9597 215.201 51.5423C214.433 51.125 213.549 50.9164 212.547 50.9164C211.545 50.9164 210.657 51.125 209.88 51.5423C209.112 51.9597 208.486 52.5439 208.002 53.2951C207.527 54.0462 207.226 54.9643 207.101 56.0494ZM234.393 67.1291V30.3218H246.287V62.9351C246.287 64.1453 246.546 65.0759 247.063 65.7269C247.589 66.3696 248.353 66.6909 249.354 66.6909C249.855 66.6909 250.398 66.6075 250.982 66.4405C251.566 66.2736 252.109 66.0441 252.609 65.752L254.112 74.5156C252.693 75.1833 251.095 75.705 249.317 76.0806C247.547 76.4561 245.866 76.6439 244.271 76.6439C241.108 76.6439 238.671 75.8177 236.96 74.1651C235.249 72.5209 234.393 70.1755 234.393 67.1291ZM279.013 76.6439C276.634 76.6439 274.569 76.1724 272.816 75.2292C271.063 74.2944 269.707 72.9298 268.747 71.1354V89.3512H256.853V43.0917H267.182V48.0369C268.351 46.2424 269.803 44.8653 271.539 43.9054C273.267 42.9456 275.361 42.4657 277.824 42.4657C280.035 42.4657 282.059 42.883 283.896 43.7176C285.732 44.5523 287.338 45.7416 288.716 47.2857C290.093 48.8298 291.157 50.6242 291.908 52.6691C292.659 54.7139 293.035 56.9675 293.035 59.4296C293.035 62.7264 292.43 65.6685 291.22 68.2559C290.009 70.8432 288.353 72.8881 286.249 74.3904C284.138 75.8928 281.726 76.6439 279.013 76.6439ZM274.882 66.6283C275.758 66.6283 276.563 66.4405 277.298 66.065C278.024 65.6894 278.658 65.1677 279.201 64.5C279.743 63.8323 280.161 63.0603 280.453 62.1839C280.745 61.3075 280.891 60.3686 280.891 59.367C280.891 58.3237 280.737 57.3848 280.428 56.5501C280.111 55.7155 279.66 54.9935 279.076 54.3843C278.491 53.7833 277.803 53.3159 277.01 52.9821C276.217 52.6482 275.341 52.4813 274.381 52.4813C273.838 52.4813 273.308 52.5522 272.791 52.6941C272.265 52.8444 271.773 53.053 271.314 53.3201C270.854 53.5955 270.408 53.9419 269.974 54.3592C269.532 54.7765 269.123 55.2773 268.747 55.8616V61.5579C269.123 62.5178 269.636 63.3858 270.287 64.162C270.93 64.9299 271.647 65.5308 272.44 65.9648C273.233 66.4072 274.047 66.6283 274.882 66.6283ZM343.426 76.018H331.219V52.6065L323.77 69.0696H317.26L309.811 52.6065V76.018H297.604V31.5737H310.938L320.515 52.4813L330.155 31.5737H343.426V76.018ZM365.898 76.6439C363.019 76.6439 360.452 76.1932 358.199 75.2918C355.945 74.3988 354.055 73.1802 352.528 71.6361C351.009 70.0921 349.853 68.3185 349.06 66.3154C348.267 64.3122 347.87 62.2048 347.87 59.993C347.87 56.8214 348.559 53.9085 349.936 51.2544C351.313 48.6086 353.337 46.4803 356.008 44.8694C358.679 43.2669 361.976 42.4657 365.898 42.4657C369.821 42.4657 373.118 43.2586 375.789 44.8444C378.46 46.4302 380.484 48.5168 381.861 51.1042C383.238 53.6915 383.926 56.5084 383.926 59.5548C383.926 60.1808 383.893 60.8151 383.826 61.4578C383.768 62.1088 383.697 62.6847 383.613 63.1855H360.515C360.598 64.354 360.92 65.3013 361.479 66.0274C362.047 66.7619 362.756 67.296 363.607 67.6299C364.467 67.9638 365.356 68.1307 366.274 68.1307C367.568 68.1307 368.786 67.8386 369.93 67.2543C371.081 66.6701 371.845 65.8563 372.221 64.813L382.299 67.6925C381.423 69.4452 380.2 70.9893 378.631 72.3247C377.07 73.6601 375.225 74.7118 373.097 75.4796C370.969 76.2558 368.569 76.6439 365.898 76.6439ZM360.265 56.0494H371.157C371.031 54.9643 370.727 54.0462 370.243 53.2951C369.767 52.5439 369.141 51.9597 368.365 51.5423C367.597 51.125 366.712 50.9164 365.711 50.9164C364.709 50.9164 363.82 51.125 363.044 51.5423C362.276 51.9597 361.65 52.5439 361.166 53.2951C360.69 54.0462 360.39 54.9643 360.265 56.0494ZM405.272 76.018H388.183V31.5737H405.272C410.197 31.5737 414.315 32.5628 417.629 34.5408C420.951 36.5273 423.455 39.1981 425.141 42.5533C426.835 45.9169 427.682 49.6435 427.682 53.7332C427.682 58.2403 426.752 62.163 424.89 65.5016C423.037 68.8401 420.429 71.4275 417.066 73.2637C413.71 75.0999 409.779 76.018 405.272 76.018ZM415.288 53.7332C415.288 51.438 414.891 49.4224 414.098 47.6863C413.306 45.9586 412.158 44.6149 410.656 43.655C409.153 42.6952 407.359 42.2153 405.272 42.2153H400.39V65.3764H405.272C407.401 65.3764 409.203 64.8756 410.681 63.874C412.166 62.8725 413.306 61.4828 414.098 59.7051C414.891 57.9356 415.288 55.945 415.288 53.7332ZM448.389 76.6439C445.51 76.6439 442.943 76.1932 440.69 75.2918C438.436 74.3988 436.55 73.1802 435.031 71.6361C433.504 70.0921 432.344 68.3185 431.551 66.3154C430.758 64.3122 430.361 62.2048 430.361 59.993C430.361 56.8214 431.05 53.9085 432.427 51.2544C433.804 48.6086 435.828 46.4803 438.499 44.8694C441.17 43.2669 444.467 42.4657 448.389 42.4657C452.312 42.4657 455.609 43.2586 458.28 44.8444C460.951 46.4302 462.975 48.5168 464.352 51.1042C465.729 53.6915 466.418 56.5084 466.418 59.5548C466.418 60.1808 466.388 60.8151 466.33 61.4578C466.263 62.1088 466.188 62.6847 466.105 63.1855H443.006C443.089 64.354 443.415 65.3013 443.983 66.0274C444.542 66.7619 445.251 67.296 446.111 67.6299C446.962 67.9638 447.847 68.1307 448.765 68.1307C450.059 68.1307 451.281 67.8386 452.433 67.2543C453.577 66.6701 454.336 65.8563 454.712 64.813L464.79 67.6925C463.914 69.4452 462.695 70.9893 461.134 72.3247C459.565 73.6601 457.716 74.7118 455.588 75.4796C453.46 76.2558 451.06 76.6439 448.389 76.6439ZM442.756 56.0494H453.648C453.522 54.9643 453.222 54.0462 452.746 53.2951C452.262 52.5439 451.636 51.9597 450.868 51.5423C450.092 51.125 449.203 50.9164 448.202 50.9164C447.2 50.9164 446.315 51.125 445.547 51.5423C444.771 51.9597 444.145 52.5439 443.67 53.2951C443.185 54.0462 442.881 54.9643 442.756 56.0494ZM491.269 76.6439C488.807 76.6439 486.678 76.1515 484.884 75.1666C483.089 74.1901 481.67 72.7629 480.627 70.885V76.018H470.299V30.3218H482.192V47.9743C483.152 46.1798 484.508 44.811 486.261 43.8679C488.014 42.9331 490.079 42.4657 492.458 42.4657C494.461 42.4657 496.318 42.8914 498.029 43.7427C499.74 44.6024 501.234 45.8042 502.511 47.3483C503.78 48.8924 504.769 50.716 505.478 52.8193C506.188 54.9309 506.543 57.2178 506.543 59.68C506.543 62.1005 506.159 64.3414 505.391 66.403C504.615 68.4729 503.55 70.2799 502.198 71.8239C500.838 73.368 499.231 74.5574 497.378 75.392C495.517 76.2266 493.481 76.6439 491.269 76.6439ZM487.826 66.6283C488.786 66.6283 489.662 66.4614 490.455 66.1276C491.248 65.7937 491.936 65.3221 492.521 64.7129C493.105 64.1119 493.556 63.3941 493.873 62.5595C494.182 61.7249 494.336 60.7859 494.336 59.7426C494.336 58.4072 494.077 57.1845 493.56 56.0744C493.034 54.9727 492.325 54.0963 491.432 53.4453C490.53 52.8026 489.495 52.4813 488.327 52.4813C487.492 52.4813 486.678 52.69 485.885 53.1073C485.092 53.5246 484.375 54.0963 483.732 54.8224C483.081 55.5569 482.568 56.4041 482.192 57.3639V63.2481C482.568 63.7906 482.977 64.2788 483.419 64.7129C483.853 65.1552 484.3 65.5099 484.759 65.777C485.218 66.0524 485.71 66.2611 486.236 66.403C486.753 66.5532 487.283 66.6283 487.826 66.6283ZM510.486 64.7504V43.0917H522.38V62.0587C522.38 63.4776 522.701 64.596 523.344 65.4139C523.995 66.2235 524.884 66.6283 526.01 66.6283C526.636 66.6283 527.262 66.5449 527.888 66.3779C528.514 66.211 529.149 65.8772 529.791 65.3764C530.442 64.8756 531.081 64.1662 531.707 63.2481V43.0917H543.6V62.8725C543.6 63.9992 543.767 64.7796 544.101 65.2136C544.435 65.656 545.019 65.9189 545.854 66.0024V76.018C544.811 76.2266 543.872 76.3852 543.037 76.4937C542.202 76.5939 541.472 76.6439 540.846 76.6439C538.843 76.6439 537.257 76.2684 536.089 75.5172C534.92 74.766 534.169 73.6184 533.835 72.0743L533.585 70.885C532.041 72.9298 530.192 74.3988 528.039 75.2918C525.894 76.1932 523.465 76.6439 520.752 76.6439C517.455 76.6439 514.918 75.6215 513.14 73.5767C511.371 71.5318 510.486 68.5897 510.486 64.7504ZM563.381 76.018C561.253 76.018 559.3 75.6007 557.522 74.766C555.753 73.9314 554.242 72.7629 552.99 71.2606C551.738 69.7582 550.766 68.0055 550.073 66.0024C549.388 63.9992 549.046 61.8292 549.046 59.4922C549.046 57.03 549.422 54.764 550.173 52.6941C550.924 50.6326 551.976 48.8298 553.328 47.2857C554.688 45.7416 556.308 44.5523 558.185 43.7176C560.063 42.883 562.129 42.4657 564.383 42.4657C566.72 42.4657 568.794 42.9331 570.605 43.8679C572.424 44.811 573.856 46.1798 574.899 47.9743V43.0917H585.228V73.0133C585.228 76.4353 584.393 79.4191 582.724 81.9647C581.054 84.5104 578.717 86.4801 575.713 87.8739C572.708 89.2761 569.203 89.9772 565.196 89.9772C561.733 89.9772 558.695 89.4347 556.082 88.3497C553.478 87.2647 551.175 85.6997 549.171 83.6549L555.431 77.1447C556.641 78.2715 558.09 79.223 559.775 79.9992C561.47 80.767 563.277 81.151 565.196 81.151C566.657 81.151 568.001 80.8797 569.228 80.3372C570.463 79.7947 571.456 78.9308 572.207 77.7457C572.959 76.5521 573.334 74.9747 573.334 73.0133V70.885C572.416 72.596 571.047 73.8771 569.228 74.7285C567.417 75.5881 565.468 76.018 563.381 76.018ZM567.638 66.6283C568.222 66.6283 568.773 66.5532 569.29 66.403C569.816 66.2611 570.309 66.0524 570.768 65.777C571.227 65.5099 571.673 65.1552 572.107 64.7129C572.55 64.2788 572.959 63.7906 573.334 63.2481V57.3639C572.959 56.3623 572.437 55.4943 571.769 54.7598C571.101 54.0337 570.371 53.4745 569.578 53.0822C568.785 52.6816 567.972 52.4813 567.137 52.4813C566.302 52.4813 565.518 52.6691 564.783 53.0447C564.057 53.4203 563.423 53.9544 562.88 54.6472C562.338 55.3316 561.92 56.112 561.628 56.9883C561.336 57.8647 561.19 58.8036 561.19 59.8052C561.19 60.8068 561.345 61.7249 561.653 62.5595C561.971 63.3941 562.421 64.1119 563.006 64.7129C563.59 65.3221 564.278 65.7937 565.071 66.1276C565.864 66.4614 566.72 66.6283 567.638 66.6283ZM623.775 31.5737V42.2153H611.005V76.018H598.799V42.2153H585.966V31.5737H623.775ZM660.52 54.3592V76.018H648.626V57.4891C648.626 55.8616 648.263 54.6806 647.537 53.9461C646.803 53.2199 645.893 52.8569 644.808 52.8569C644.307 52.8569 643.694 53.0447 642.968 53.4203C642.233 53.7958 641.532 54.3384 640.864 55.0478C640.197 55.7572 639.675 56.5919 639.299 57.5517V76.018H627.406V30.3218H639.299V47.9743C640.468 46.1798 642.004 44.811 643.907 43.8679C645.801 42.9331 647.896 42.4657 650.191 42.4657C652.528 42.4657 654.385 42.8496 655.763 43.6175C657.14 44.3937 658.162 45.3869 658.83 46.5971C659.498 47.8073 659.948 49.101 660.182 50.4782C660.407 51.8553 660.52 53.149 660.52 54.3592ZM678.172 76.018H666.279V43.0917H678.172V76.018ZM678.172 40.3374H666.279V30.3218H678.172V40.3374ZM697.39 76.6439C694.51 76.6439 691.681 76.1724 688.902 75.2292C686.131 74.2944 683.785 72.9298 681.866 71.1354L685.935 63.8114C687.979 65.1469 689.949 66.1902 691.844 66.9413C693.747 67.6925 695.47 68.0681 697.014 68.0681C697.891 68.0681 698.537 67.9512 698.955 67.7175C699.372 67.4922 699.581 67.1083 699.581 66.5657C699.581 66.1902 699.435 65.8772 699.143 65.6268C698.851 65.3764 698.379 65.126 697.728 64.8756C697.085 64.6252 696.263 64.354 695.262 64.0618C692.674 63.1437 690.513 62.2882 688.776 61.4953C687.049 60.7024 685.755 59.7301 684.895 58.5783C684.044 57.4348 683.618 55.9033 683.618 53.9836C683.618 51.7301 684.182 49.7354 685.309 47.9993C686.435 46.2716 688.05 44.907 690.154 43.9054C692.265 42.9039 694.803 42.4031 697.765 42.4031C699.977 42.4031 702.197 42.7453 704.426 43.4297C706.663 44.1224 708.824 45.366 710.911 47.1605L706.404 54.4218C704.317 53.1281 702.552 52.21 701.108 51.6675C699.673 51.125 698.391 50.8538 697.265 50.8538C696.722 50.8538 696.251 50.9164 695.85 51.0416C695.458 51.1667 695.157 51.3545 694.949 51.6049C694.74 51.8553 694.636 52.1892 694.636 52.6065C694.636 53.0238 694.782 53.366 695.074 53.6331C695.366 53.9085 695.825 54.1589 696.451 54.3843C697.077 54.618 697.87 54.8809 698.83 55.173C701.667 56.0076 703.984 56.8506 705.778 57.7019C707.572 58.5616 708.895 59.5965 709.747 60.8068C710.606 62.017 711.036 63.6028 711.036 65.5642C711.036 69.0279 709.813 71.7405 707.368 73.7019C704.931 75.6633 701.605 76.6439 697.39 76.6439Z" fill="white"/>
</g>
</g>
<g clip-path="url(#clip7_0_1)">
<g clip-path="url(#clip8_0_1)">
<path d="M395.457 104.473L405.021 133.33H401.558L398.672 124.219H388.325L385.48 133.33H382.223L391.705 104.473H395.457ZM389.108 121.54H397.971L393.56 107.606L389.108 121.54ZM410.874 128.96V133.33H407.783V128.96H410.874ZM419.944 104.473V133.33H416.852V104.473H419.944ZM452.256 105.503L451.596 108.265L449.205 107.565C447.501 107.152 446.031 106.946 444.794 106.946C441.551 106.946 439.93 108.389 439.93 111.275C439.93 112.539 440.424 113.575 441.414 114.383C442.403 115.197 443.607 115.842 445.025 116.321C446.438 116.804 447.853 117.326 449.271 117.887C450.684 118.453 451.885 119.319 452.874 120.484C453.863 121.655 454.358 123.134 454.358 124.92C454.358 127.641 453.52 129.763 451.843 131.285C450.167 132.813 447.79 133.577 444.712 133.577C443.173 133.577 441.628 133.349 440.078 132.893C438.522 132.442 437.25 131.914 436.261 131.31L437.291 128.96C439.792 130.114 442.164 130.691 444.407 130.691C446.644 130.691 448.348 130.238 449.518 129.331C450.684 128.424 451.266 127.105 451.266 125.374C451.266 123.615 450.318 122.24 448.422 121.251C447.57 120.811 446.63 120.399 445.602 120.014C444.569 119.63 443.538 119.209 442.51 118.753C441.477 118.302 440.542 117.788 439.707 117.211C438.866 116.634 438.179 115.851 437.646 114.861C437.107 113.872 436.838 112.718 436.838 111.398C436.838 109.035 437.547 107.221 438.965 105.957C440.378 104.693 442.279 104.06 444.67 104.06C447.061 104.06 449.59 104.541 452.256 105.503ZM469.158 112.264C471.796 112.264 473.679 113.199 474.805 115.067C477.142 113.199 479.299 112.264 481.278 112.264C483.257 112.264 484.87 112.819 486.118 113.93C487.371 115.045 487.997 116.661 487.997 118.778V133.33H484.988V120.056C484.988 118.379 484.609 117.107 483.85 116.238C483.097 115.375 482.088 114.944 480.824 114.944C479.093 114.944 477.348 115.631 475.589 117.005C475.726 117.61 475.795 118.2 475.795 118.778V133.33H472.785V120.056C472.785 118.379 472.406 117.107 471.648 116.238C470.895 115.375 469.886 114.944 468.622 114.944C467.797 114.944 467.042 115.054 466.354 115.274C465.667 115.493 465.159 115.713 464.829 115.933C464.499 116.153 464.073 116.483 463.551 116.922V133.33H460.459V112.718H462.438L462.974 114.82C463.661 114.243 464.189 113.822 464.557 113.559C464.931 113.3 465.544 113.02 466.396 112.718C467.248 112.415 468.168 112.264 469.158 112.264ZM504.405 121.004H506.095C506.095 118.503 505.779 116.873 505.147 116.114C504.515 115.361 503.113 114.985 500.942 114.985C498.771 114.985 496.929 115.274 495.418 115.851L494.841 113.46C497.149 112.69 499.54 112.305 502.014 112.305C506.851 112.305 509.269 114.724 509.269 119.561V133.33H507.455L506.383 130.898C505.119 131.942 504.025 132.648 503.102 133.017C502.184 133.39 501.12 133.577 499.911 133.577C497.987 133.577 496.49 133.006 495.418 131.862C494.346 130.724 493.81 129.221 493.81 127.352C493.81 123.12 497.342 121.004 504.405 121.004ZM506.136 127.929V123.601H504.281C501.478 123.601 499.546 123.876 498.485 124.425C497.43 124.975 496.902 125.832 496.902 126.998C496.902 128.169 497.204 129.125 497.809 129.867C498.413 130.609 499.202 130.98 500.175 130.98C501.153 130.98 502.088 130.752 502.978 130.296C503.874 129.845 504.927 129.056 506.136 127.929ZM519.856 117.582V133.33H516.764V112.718H518.743L519.237 115.15C520.556 114.105 521.656 113.369 522.535 112.94C523.415 112.517 524.418 112.305 525.545 112.305C526.094 112.305 526.507 112.333 526.781 112.388L527.359 112.553L526.864 115.397C526.369 115.232 525.696 115.15 524.844 115.15C523.195 115.15 521.532 115.961 519.856 117.582ZM532.553 128.878V115.191H529.75V112.718H532.594V106.822H535.686V112.718H540.715V115.191H535.645V128.3C535.645 130.142 536.579 131.063 538.448 131.063C538.888 131.063 539.561 130.98 540.468 130.815L540.921 133.041C539.795 133.399 538.635 133.577 537.442 133.577C536.244 133.577 535.131 133.212 534.103 132.481C533.07 131.755 532.553 130.554 532.553 128.878ZM566.646 104.473L576.21 133.33H572.747L569.861 124.219H559.514L556.669 133.33H553.412L562.894 104.473H566.646ZM560.297 121.54H569.16L564.749 107.606L560.297 121.54ZM578.963 131.969L579.705 129.661C581.492 130.485 583.196 130.898 584.817 130.898C586.439 130.898 587.67 130.573 588.511 129.925C589.346 129.282 589.764 128.424 589.764 127.352C589.764 126.28 589.407 125.448 588.692 124.854C587.978 124.266 587.107 123.807 586.079 123.477C585.045 123.147 584.015 122.79 582.987 122.405C581.954 122.021 581.08 121.443 580.365 120.674C579.65 119.904 579.293 118.929 579.293 117.747C579.293 116.016 579.857 114.674 580.983 113.723C582.11 112.778 583.636 112.305 585.559 112.305C587.483 112.305 589.27 112.594 590.919 113.171L591.207 113.295L590.671 115.933C589.022 115.301 587.491 114.985 586.079 114.985C584.661 114.985 583.69 115.205 583.168 115.645C582.646 116.084 582.385 116.826 582.385 117.871C582.385 118.53 582.742 119.094 583.457 119.561C584.171 120.028 585.045 120.432 586.079 120.773C587.107 121.119 588.137 121.518 589.171 121.968C590.198 122.425 591.07 123.106 591.784 124.013C592.499 124.92 592.856 126.033 592.856 127.352C592.856 129.276 592.183 130.793 590.836 131.903C589.489 133.019 587.634 133.577 585.271 133.577C582.907 133.577 580.805 133.041 578.963 131.969ZM596.937 131.969L597.679 129.661C599.466 130.485 601.17 130.898 602.791 130.898C604.413 130.898 605.644 130.573 606.485 129.925C607.32 129.282 607.738 128.424 607.738 127.352C607.738 126.28 607.381 125.448 606.666 124.854C605.952 124.266 605.081 123.807 604.053 123.477C603.019 123.147 601.989 122.79 600.961 122.405C599.927 122.021 599.053 121.443 598.339 120.674C597.624 119.904 597.267 118.929 597.267 117.747C597.267 116.016 597.83 114.674 598.957 113.723C600.084 112.778 601.609 112.305 603.533 112.305C605.457 112.305 607.243 112.594 608.892 113.171L609.181 113.295L608.645 115.933C606.996 115.301 605.465 114.985 604.053 114.985C602.635 114.985 601.664 115.205 601.142 115.645C600.62 116.084 600.359 116.826 600.359 117.871C600.359 118.53 600.716 119.094 601.431 119.561C602.145 120.028 603.019 120.432 604.053 120.773C605.081 121.119 606.111 121.518 607.145 121.968C608.172 122.425 609.044 123.106 609.758 124.013C610.473 124.92 610.83 126.033 610.83 127.352C610.83 129.276 610.157 130.793 608.81 131.903C607.463 133.019 605.608 133.577 603.245 133.577C600.881 133.577 598.779 133.041 596.937 131.969ZM618.951 133.33H615.859V112.718H618.951V133.33ZM615.859 104.473H618.951V108.142H615.859V104.473ZM624.31 131.969L625.052 129.661C626.839 130.485 628.543 130.898 630.164 130.898C631.786 130.898 633.014 130.573 633.85 129.925C634.691 129.282 635.111 128.424 635.111 127.352C635.111 126.28 634.754 125.448 634.039 124.854C633.325 124.266 632.451 123.807 631.418 123.477C630.39 123.147 629.359 122.79 628.326 122.405C627.298 122.021 626.427 121.443 625.712 120.674C624.997 119.904 624.64 118.929 624.64 117.747C624.64 116.016 625.204 114.674 626.33 113.723C627.457 112.778 628.982 112.305 630.906 112.305C632.83 112.305 634.617 112.594 636.265 113.171L636.554 113.295L636.018 115.933C634.369 115.301 632.836 114.985 631.418 114.985C630.005 114.985 629.037 115.205 628.515 115.645C627.993 116.084 627.732 116.826 627.732 117.871C627.732 118.53 628.089 119.094 628.804 119.561C629.518 120.028 630.39 120.432 631.418 120.773C632.451 121.119 633.481 121.518 634.509 121.968C635.543 122.425 636.417 123.106 637.131 124.013C637.846 124.92 638.203 126.033 638.203 127.352C638.203 129.276 637.53 130.793 636.183 131.903C634.836 133.019 632.981 133.577 630.618 133.577C628.254 133.577 626.152 133.041 624.31 131.969ZM644.296 128.878V115.191H641.493V112.718H644.337V106.822H647.429V112.718H652.459V115.191H647.388V128.3C647.388 130.142 648.322 131.063 650.191 131.063C650.631 131.063 651.304 130.98 652.211 130.815L652.665 133.041C651.538 133.399 650.378 133.577 649.185 133.577C647.987 133.577 646.874 133.212 645.846 132.481C644.813 131.755 644.296 130.554 644.296 128.878ZM666.97 121.004H668.66C668.66 118.503 668.344 116.873 667.712 116.114C667.079 115.361 665.678 114.985 663.507 114.985C661.336 114.985 659.494 115.274 657.983 115.851L657.405 113.46C659.714 112.69 662.105 112.305 664.579 112.305C669.416 112.305 671.834 114.724 671.834 119.561V133.33H670.02L668.948 130.898C667.684 131.942 666.593 132.648 665.675 133.017C664.752 133.39 663.685 133.577 662.476 133.577C660.552 133.577 659.054 133.006 657.983 131.862C656.911 130.724 656.375 129.221 656.375 127.352C656.375 123.12 659.906 121.004 666.97 121.004ZM668.701 127.929V123.601H666.846C664.043 123.601 662.113 123.876 661.058 124.425C659.997 124.975 659.467 125.832 659.467 126.998C659.467 128.169 659.769 129.125 660.374 129.867C660.978 130.609 661.77 130.98 662.748 130.98C663.721 130.98 664.655 130.752 665.551 130.296C666.442 129.845 667.492 129.056 668.701 127.929ZM682.429 116.964V133.33H679.337V112.718H681.316L681.81 114.738C682.442 114.243 682.956 113.858 683.352 113.583C683.753 113.308 684.394 113.025 685.273 112.734C686.153 112.448 687.087 112.305 688.076 112.305C689.973 112.305 691.545 112.888 692.793 114.053C694.046 115.224 694.672 116.881 694.672 119.025V133.33H691.581V119.932C691.581 116.606 690.193 114.944 687.417 114.944C685.438 114.944 683.775 115.617 682.429 116.964ZM702.67 128.878V115.191H699.867V112.718H702.711V106.822H705.803V112.718H710.832V115.191H705.762V128.3C705.762 130.142 706.696 131.063 708.565 131.063C709.005 131.063 709.678 130.98 710.585 130.815L711.039 133.041C709.912 133.399 708.749 133.577 707.551 133.577C706.358 133.577 705.245 133.212 704.212 132.481C703.184 131.755 702.67 130.554 702.67 128.878Z" fill="white"/>
</g>
</g>
</g>
</g>
<g clip-path="url(#clip9_0_1)">
<g clip-path="url(#clip10_0_1)">
<path d="M777.675 43.2781C780.985 43.2781 783.668 40.5948 783.668 37.2847C783.668 33.9747 780.985 31.2914 777.675 31.2914C774.365 31.2914 771.681 33.9747 771.681 37.2847C771.681 40.5948 774.365 43.2781 777.675 43.2781Z" fill="white"/>
<path d="M815.146 43.2781C818.456 43.2781 821.139 40.5948 821.139 37.2847C821.139 33.9747 818.456 31.2914 815.146 31.2914C811.836 31.2914 809.153 33.9747 809.153 37.2847C809.153 40.5948 811.836 43.2781 815.146 43.2781Z" fill="white"/>
<path d="M744.601 10.6V66.5737H790.117V71.3398L744.601 71.3427V153.299H771.063L791.204 133.158L779.63 121.586L791.204 110.011L787.821 106.629L772.866 121.586L779.427 128.148L766.186 141.391H756.511V83.2509H836.31V141.389H826.638L813.395 128.147L819.958 121.584L804.999 106.628L801.615 110.01L813.191 121.584L801.615 133.157L821.757 153.299H848.219V71.3427L802.704 71.3413V66.5751H848.219V10.6H744.601ZM836.31 54.664H756.511V21.6592H836.31V54.664Z" fill="white"/>
<path d="M796.408 111.855L786.68 121.583L796.409 131.312L806.137 121.584L796.408 111.855Z" fill="white"/>
</g>
</g>
</g>
</g>
</g>
<defs>
<clipPath id="clip0_0_1">
<rect width="700" height="142.8" fill="white" transform="translate(149.576 10.5495)"/>
</clipPath>
<clipPath id="clip1_0_1">
<rect width="697.287" height="142.699" fill="white" transform="translate(150.932 10.6)"/>
</clipPath>
<clipPath id="clip2_0_1">
<rect width="697.287" height="142.699" fill="white" transform="translate(150.932 10.6)"/>
</clipPath>
<clipPath id="clip3_0_1">
<rect width="560.123" height="103.255" fill="white" transform="translate(150.932 30.3218)"/>
</clipPath>
<clipPath id="clip4_0_1">
<rect width="560.123" height="103.255" fill="white" transform="translate(150.932 30.3218)"/>
</clipPath>
<clipPath id="clip5_0_1">
<rect width="560.123" height="59.6555" fill="white" transform="translate(150.932 30.3218)"/>
</clipPath>
<clipPath id="clip6_0_1">
<rect width="560.123" height="59.6555" fill="white" transform="translate(150.932 30.3218)"/>
</clipPath>
<clipPath id="clip7_0_1">
<rect width="328.848" height="29.5168" fill="white" transform="translate(382.207 104.06)"/>
</clipPath>
<clipPath id="clip8_0_1">
<rect width="328.848" height="29.5168" fill="white" transform="translate(382.207 104.06)"/>
</clipPath>
<clipPath id="clip9_0_1">
<rect width="103.618" height="142.699" fill="white" transform="translate(744.601 10.6)"/>
</clipPath>
<clipPath id="clip10_0_1">
<rect width="103.618" height="142.699" fill="white" transform="translate(744.601 10.6)"/>
</clipPath>
</defs>
</svg>
